<svg xmlns="http://www.w3.org/2000/svg" viewBox="0 0 720 720" role="img" aria-labelledby="title desc">
  <title id="title">Lonto Lab Logo</title>
  <desc id="desc">A simple white and red rounded-square logo with tree branches, blood circulation lines, and the text Lonto Lab Define New Standard.</desc>
  <defs>
    <linearGradient id="blood" x1="164" y1="122" x2="556" y2="604" gradientUnits="userSpaceOnUse">
      <stop offset="0" stop-color="#f7efe8"/>
      <stop offset="0.42" stop-color="#d8262f"/>
      <stop offset="1" stop-color="#7d0d17"/>
    </linearGradient>
    <linearGradient id="softRed" x1="112" y1="116" x2="610" y2="612" gradientUnits="userSpaceOnUse">
      <stop offset="0" stop-color="#fff7f2"/>
      <stop offset="1" stop-color="#ffe6de"/>
    </linearGradient>
    <filter id="shadow" x="-10%" y="-10%" width="120%" height="120%">
      <feDropShadow dx="0" dy="18" stdDeviation="18" flood-color="#4d0710" flood-opacity="0.16"/>
    </filter>
  </defs>
  <rect x="36" y="36" width="648" height="648" rx="96" fill="#fffaf5" filter="url(#shadow)"/>
  <rect x="60" y="60" width="600" height="600" rx="76" fill="url(#softRed)" stroke="#b41420" stroke-width="10"/>
  <path d="M360 112C270 142 212 220 212 318c0 86 50 153 129 188 13 6 27-6 22-20-14-44-4-88 29-124 29-32 73-48 126-45 15 1 25-15 17-28-35-61-94-98-175-177Z" fill="#ffffff" opacity="0.88"/>
  <path d="M361 150v262" fill="none" stroke="#7d0d17" stroke-width="18" stroke-linecap="round"/>
  <path d="M360 260c-54-2-92-26-123-70" fill="none" stroke="#b41420" stroke-width="16" stroke-linecap="round"/>
  <path d="M361 303c63-2 106-30 139-78" fill="none" stroke="#b41420" stroke-width="16" stroke-linecap="round"/>
  <path d="M360 350c-56 4-101 30-134 78" fill="none" stroke="#d8262f" stroke-width="15" stroke-linecap="round"/>
  <path d="M361 399c52 1 93 19 126 54" fill="none" stroke="#d8262f" stroke-width="15" stroke-linecap="round"/>
  <path d="M194 510c65 46 137 69 216 67 54-2 101-15 141-41" fill="none" stroke="url(#blood)" stroke-width="18" stroke-linecap="round"/>
  <path d="M540 536c-21 3-39-1-55-11 9 18 23 30 42 39" fill="none" stroke="#7d0d17" stroke-width="12" stroke-linecap="round" stroke-linejoin="round"/>
  <circle cx="237" cy="190" r="13" fill="#d8262f"/>
  <circle cx="502" cy="226" r="12" fill="#d8262f"/>
  <circle cx="226" cy="428" r="11" fill="#7d0d17"/>
  <circle cx="487" cy="453" r="11" fill="#7d0d17"/>
  <rect x="112" y="488" width="496" height="116" rx="28" fill="#fffaf5" opacity="0.94"/>
  <text x="360" y="544" text-anchor="middle" font-family="Georgia, 'Times New Roman', serif" font-size="58" font-weight="700" fill="#5d0710">Lonto Lab</text>
  <text x="360" y="586" text-anchor="middle" font-family="Helvetica, Arial, sans-serif" font-size="28" font-weight="700" fill="#b41420">Define New Standard</text>
</svg>
